<svg width="28" height="29" viewBox="0 0 28 29" fill="none" xmlns="http://www.w3.org/2000/svg">
<path d="M14 2.25C7.23297 2.25 1.75 7.73297 1.75 14.5C1.75 21.267 7.23297 26.75 14 26.75C20.767 26.75 26.25 21.267 26.25 14.5C26.25 7.73297 20.767 2.25 14 2.25ZM9.35156 19.8534C9.27639 19.9816 9.16879 20.0877 9.03957 20.1612C8.91036 20.2346 8.76409 20.2727 8.61547 20.2717C8.464 20.273 8.31515 20.2321 8.18562 20.1536C8.08918 20.0977 8.00473 20.0233 7.93711 19.9347C7.86949 19.8461 7.82003 19.745 7.79158 19.6372C7.76312 19.5295 7.75623 19.4171 7.7713 19.3067C7.78636 19.1963 7.82309 19.0899 7.87937 18.9937L8.71555 17.6035C8.7578 17.5318 8.81809 17.4723 8.89042 17.4311C8.96276 17.3898 9.04462 17.3682 9.12789 17.3684H9.25148C9.85797 17.3684 10.2823 17.7331 10.4059 18.0864L9.35156 19.8534ZM16.4309 17.119L10.955 17.125H7.31555C7.20104 17.1255 7.08763 17.1027 6.98219 17.058C6.87675 17.0134 6.78149 16.9478 6.70217 16.8652C6.62286 16.7826 6.56114 16.6847 6.52078 16.5776C6.48041 16.4704 6.46223 16.3562 6.46734 16.2418C6.48484 15.7824 6.8857 15.4346 7.34234 15.4346H9.98047L13.108 10.1108L12.0952 8.38539C11.8672 7.99219 11.9684 7.47375 12.3594 7.22656C12.4558 7.16422 12.5638 7.12201 12.6769 7.10248C12.79 7.08295 12.9059 7.08649 13.0177 7.1129C13.1294 7.13932 13.2346 7.18805 13.327 7.25617C13.4194 7.32429 13.4971 7.41039 13.5554 7.5093L14.0968 8.43406H14.1028L14.6448 7.5093C14.7031 7.4109 14.7807 7.32526 14.8728 7.25748C14.965 7.1897 15.0698 7.14118 15.1811 7.11479C15.2924 7.08841 15.4079 7.0847 15.5207 7.10391C15.6335 7.12311 15.7412 7.16482 15.8375 7.22656C16.2263 7.47375 16.3264 7.99219 16.0967 8.38703L15.0839 10.1124L14.0995 11.7908L11.9618 15.4362V15.4423H15.1123C15.5072 15.4423 16.0021 15.6545 16.2023 15.9957L16.2198 16.0312C16.3964 16.3315 16.4965 16.5377 16.4965 16.8379C16.4936 16.9354 16.4719 17.0314 16.4325 17.1206L16.4309 17.119ZM20.6828 17.125H19.2002V17.131L20.2841 18.9745C20.4007 19.1687 20.4364 19.4008 20.3835 19.6211C20.3306 19.8413 20.1934 20.0319 20.0014 20.152C19.8683 20.2331 19.7154 20.2761 19.5595 20.2761C19.4113 20.276 19.2656 20.2376 19.1366 20.1646C19.0077 20.0916 18.8998 19.9864 18.8234 19.8594L17.2216 17.1327L16.2263 15.4373L14.9423 13.2422C14.7563 12.9287 14.6552 12.5723 14.649 12.2078C14.6427 11.8434 14.7316 11.4837 14.9067 11.1641C15.1605 10.7162 15.3546 10.5986 15.3546 10.5986L18.2109 15.4297H20.667C21.1263 15.4297 21.5206 15.783 21.542 16.2363C21.5464 16.3516 21.5275 16.4666 21.4863 16.5743C21.4452 16.6821 21.3827 16.7804 21.3026 16.8634C21.2225 16.9464 21.1265 17.0124 21.0202 17.0573C20.914 17.1023 20.7998 17.1253 20.6845 17.125H20.6828Z" fill="#5762D5"/>
</svg>
